HIERARCHY
ROOT hip
{
	OFFSET 0.000000 0.000000 0.000000
	CHANNELS 6 Xposition Yposition Zposition Xrotation Zrotation Yrotation 
	JOINT abdomen
	{
		OFFSET 0.000000 3.422050 0.000000
		CHANNELS 3 Xrotation Zrotation Yrotation 
		JOINT chest
		{
			OFFSET 0.000000 8.486693 -0.684411
			CHANNELS 3 Xrotation Zrotation Yrotation 
			JOINT neck
			{
				OFFSET 0.000000 10.266162 -0.273764
				CHANNELS 3 Xrotation Zrotation Yrotation 
				JOINT head
				{
					OFFSET 0.000000 3.148285 0.000000
					CHANNELS 3 Xrotation Zrotation Yrotation 
					End Site
					{
						OFFSET 0.000000 3.148289 0.000000
					}
				}
			}
			JOINT lCollar
			{
				OFFSET 3.422053 6.707223 -0.821293
				CHANNELS 3 Yrotation Zrotation Xrotation 
				JOINT lShldr
				{
					OFFSET 3.285171 0.000000 0.000000
					CHANNELS 3 Zrotation Yrotation Xrotation 
					JOINT lForeArm
					{
						OFFSET 10.129278 0.000000 0.000000
						CHANNELS 3 Yrotation Zrotation Xrotation 
						JOINT lHand
						{
							OFFSET 8.486692 0.000000 0.000000
							CHANNELS 3 Zrotation Yrotation Xrotation 
							End Site
							{
								OFFSET 4.106464 0.000000 0.000000
							}
						}
					}
				}
			}
			JOINT rCollar
			{
				OFFSET -3.558935 6.707223 -0.821293
				CHANNELS 3 Yrotation Zrotation Xrotation 
				JOINT rShldr
				{
					OFFSET -3.148289 0.000000 0.000000
					CHANNELS 3 Zrotation Yrotation Xrotation 
					JOINT rForeArm
					{
						OFFSET -10.266159 0.000000 0.000000
						CHANNELS 3 Yrotation Zrotation Xrotation 
						JOINT rHand
						{
							OFFSET -8.349810 0.000000 0.000000
							CHANNELS 3 Zrotation Yrotation Xrotation 
							End Site
							{
								OFFSET -4.106464 0.000000 0.000000
							}
						}
					}
				}
			}
		}
	}
	JOINT lThigh
	{
		OFFSET 5.338403 -1.642589 1.368821
		CHANNELS 3 Xrotation Zrotation Yrotation 
		JOINT lShin
		{
			OFFSET -2.053232 -20.121670 0.000000
			CHANNELS 3 Xrotation Zrotation Yrotation 
			JOINT lFoot
			{
				OFFSET 0.000000 -19.300380 -1.231939
				CHANNELS 3 Xrotation Yrotation Zrotation 
				End Site
				{
					OFFSET 0.000000 -2.463878 4.653993
				}
			}
		}
	}
	JOINT rThigh
	{
		OFFSET -5.338403 -1.642589 1.368821
		CHANNELS 3 Xrotation Zrotation Yrotation 
		JOINT rShin
		{
			OFFSET 2.053232 -20.121670 0.000000
			CHANNELS 3 Xrotation Zrotation Yrotation 
			JOINT rFoot
			{
				OFFSET 0.000000 -19.300380 -1.231939
				CHANNELS 3 Xrotation Yrotation Zrotation 
				End Site
				{
					OFFSET 0.000000 -2.463878 4.653993
				}
			}
		}
	}
}
MOTION
Frames: 10
Frame Time: 0.049989
0.000000 43.528500 0.000000 0.000000 0.000000 0.000000 0.000000 0.000000 0.000000 0.000000 0.000000 0.000000 0.000000 0.000000 0.000000 0.000000 0.000000 0.000000 0.000000 0.000000 0.000000 0.000000 0.000000 0.000000 0.000000 0.000000 0.000000 0.000000 0.000000 0.000000 0.000000 0.000000 0.000000 0.000000 0.000000 0.000000 0.000000 0.000000 0.000000 0.000000 0.000000 0.000000 0.000000 0.000000 0.000000 0.000000 0.000000 0.000000 0.000000 0.000000 0.000000 0.000000 0.000000 0.000000 0.000000 0.000000 0.000000 0.000000 0.000000 0.000000 
16.998161 7.997272 -34.005333 89.977356 78.976761 -90.003098 7.782501 -0.880883 -0.938005 6.362175 5.568404 -0.673904 40.959240 -0.011466 -0.004282 4.355603 -0.042148 9.997294 -52.158428 -12.610284 -15.516582 -34.944550 -15.881105 -19.154341 -24.515770 13.962942 -9.728106 23.927450 -24.084562 -18.411299 19.829496 2.141458 9.428745 52.667805 20.388109 31.110027 88.326134 -29.698189 -41.820541 40.968040 4.588863 -10.826567 26.629309 5.293664 0.136654 60.437817 -2.859123 0.263376 11.667410 0.809980 3.125473 -24.057819 -2.323071 6.074553 58.312298 34.831280 -2.209074 29.327374 -15.347295 -3.368434 
16.998161 7.997272 -34.005333 89.977356 78.976761 -90.003098 8.115746 -0.880927 -0.938096 5.365686 5.568320 -0.673979 41.569473 -0.011446 -0.004344 4.077850 -0.046576 10.108367 -52.594555 -13.398022 -15.372487 -34.419853 -15.577291 -19.310326 -24.274069 13.999716 -9.785508 23.927448 -24.084560 -18.411297 19.712729 2.408003 9.892414 52.667801 20.388111 31.110027 88.326134 -29.698189 -41.820538 40.968040 4.588863 -10.826567 26.629309 5.293664 0.136654 60.437817 -2.859123 0.263376 11.667408 0.809980 3.125472 -24.057819 -2.323071 6.074553 58.312298 34.831280 -2.209074 29.327374 -15.347295 -3.368434 
16.998161 7.997272 -34.005333 89.977356 78.976761 -90.003098 8.449030 -0.880970 -0.938187 4.367985 5.568235 -0.674054 42.180012 -0.011425 -0.004406 3.800060 -0.050465 10.219472 -53.030571 -14.187635 -15.233950 -33.896580 -15.271997 -19.463264 -24.032282 14.036260 -9.843085 23.927452 -24.084562 -18.411299 19.593748 2.673691 10.356893 52.667809 20.388113 31.110029 88.326134 -29.698189 -41.820541 40.968048 4.588863 -10.826567 26.629309 5.293664 0.136654 60.437817 -2.859123 0.263376 11.667411 0.809980 3.125473 -24.057819 -2.323071 6.074553 58.312298 34.831280 -2.209074 29.327374 -15.347295 -3.368435 
16.998161 7.997272 -34.005333 89.977356 78.976761 -90.003098 8.782356 -0.881012 -0.938278 3.369218 5.568150 -0.674127 42.790779 -0.011403 -0.004468 3.522234 -0.053816 10.330605 -53.466579 -14.978981 -15.101019 -33.374683 -14.965245 -19.613134 -23.790396 14.072567 -9.900831 23.927450 -24.084562 -18.411299 19.472540 2.938488 10.822170 52.667805 20.388109 31.110027 88.326134 -29.698189 -41.820541 40.968040 4.588863 -10.826567 26.629309 5.293664 0.136654 60.437817 -2.859123 0.263376 11.667410 0.809980 3.125473 -24.057819 -2.323071 6.074553 58.312298 34.831280 -2.209074 29.327374 -15.347295 -3.368434 
16.998161 7.997272 -34.005333 89.977303 78.976730 -90.003098 9.115715 -0.881055 -0.938370 2.369537 5.568062 -0.674198 43.401756 -0.011381 -0.004529 3.244381 -0.056628 10.441760 -53.902691 -15.771913 -14.973747 -32.854218 -14.657098 -19.759949 -23.548429 14.108640 -9.958749 23.927450 -24.084562 -18.411299 19.349121 3.202365 11.288252 52.667805 20.388109 31.110027 88.326134 -29.698189 -41.820541 40.968040 4.588862 -10.826567 26.629309 5.293664 0.136654 60.437817 -2.859123 0.263377 11.667410 0.809980 3.125473 -24.057819 -2.323071 6.074553 58.312290 34.831276 -2.209075 29.327372 -15.347295 -3.368434 
16.998161 7.997272 -34.005333 89.977356 78.976761 -90.003098 9.449106 -0.881096 -0.938462 1.369093 5.567972 -0.674268 44.012905 -0.011358 -0.004591 2.966504 -0.058901 10.552938 -54.339001 -16.566277 -14.852187 -32.335144 -14.347591 -19.903700 -23.306376 14.144480 -10.016836 23.927452 -24.084564 -18.411301 19.223495 3.465290 11.755135 52.667812 20.388111 31.110029 88.326134 -29.698189 -41.820541 40.968040 4.588863 -10.826568 26.629309 5.293664 0.136654 60.437817 -2.859123 0.263376 11.667411 0.809980 3.125473 -24.057819 -2.323071 6.074553 58.312298 34.831280 -2.209073 29.327374 -15.347297 -3.368435 
16.998161 7.997272 -34.005333 89.977356 78.976761 -90.003098 9.782515 -0.881137 -0.938553 0.368038 5.567883 -0.674337 44.624199 -0.011335 -0.004652 2.688607 -0.060635 10.664133 -54.775620 -17.361927 -14.736389 -31.817476 -14.036775 -20.044392 -23.064232 14.180079 -10.075088 23.927450 -24.084562 -18.411299 19.095667 3.727229 12.222809 52.667805 20.388109 31.110027 88.326134 -29.698189 -41.820541 40.968040 4.588863 -10.826567 26.629309 5.293664 0.136654 60.437817 -2.859123 0.263376 11.667410 0.809980 3.125473 -24.057819 -2.323071 6.074553 58.312298 34.831280 -2.209074 29.327374 -15.347295 -3.368434 
16.998161 7.997272 -34.005333 89.977356 78.976730 -90.003052 10.115941 -0.881178 -0.938645 -0.633475 5.567791 -0.674403 45.235592 -0.011311 -0.004712 2.410697 -0.061830 10.775336 -55.212681 -18.158718 -14.626420 -31.301197 -13.724683 -20.182009 -22.822014 14.215442 -10.133504 23.927450 -24.084562 -18.411299 18.965643 3.988153 12.691277 52.667801 20.388109 31.110027 88.326134 -29.698189 -41.820541 40.968040 4.588863 -10.826567 26.629309 5.293664 0.136654 60.437817 -2.859123 0.263376 11.667410 0.809980 3.125473 -24.057819 -2.323071 6.074553 58.312298 34.831280 -2.209074 29.327374 -15.347295 -3.368434 
16.998161 7.997272 -34.005333 89.977356 78.976761 -90.003098 10.449378 -0.881218 -0.938738 -1.635294 5.567699 -0.674469 45.847057 -0.011286 -0.004773 2.132776 -0.062485 10.886546 -55.650272 -18.956493 -14.522335 -30.786327 -13.411375 -20.316570 -22.579710 14.250563 -10.192083 23.927448 -24.084560 -18.411297 18.833431 4.248030 13.160532 52.667805 20.388109 31.110027 88.326126 -29.698185 -41.820538 40.968040 4.588862 -10.826567 26.629307 5.293664 0.136654 60.437817 -2.859123 0.263376 11.667410 0.809980 3.125473 -24.057819 -2.323070 6.074553 58.312298 34.831280 -2.209074 29.327374 -15.347295 -3.368434 
